<svg width="1145" height="882" viewBox="0 0 1145 882" fill="none" xmlns="http://www.w3.org/2000/svg">
<path fill-rule="evenodd" clip-rule="evenodd" d="M403.909 6.23831C416.195 4.85287 429.015 4.16211 442.433 4.16211C480.763 4.16211 523.977 9.80517 573.487 20.9955C611.674 29.6276 645.764 36.7291 675.84 42.9947L675.908 43.0088L675.912 43.0096C851.346 79.5516 910.448 91.8622 1026.07 248.22C1098.55 346.247 1134.08 402.935 1139.91 459.96C1145.82 517.794 1121.87 575.114 1051.56 671.453C981.252 767.792 930.414 812.937 863.989 838.022C812.03 857.644 750.898 864.438 655.939 866.409C750.988 860.852 810.839 851.776 860.708 829.29C922.639 801.367 968.083 753.979 1028.38 654.445C1088.67 554.936 1107.48 496.289 1097.79 438.059C1088.25 380.732 1050.55 325.161 974.878 229.588C853.776 76.649 796.575 66.5157 626.777 36.4354C597.885 31.3177 565.134 25.5149 528.417 18.3421C480.231 8.92935 439.327 5.0615 403.909 6.23831ZM365.356 9.8097C418.966 -3.90247 485.195 -2.2814 574.596 17.9264C612.724 26.5447 646.776 33.6387 676.825 39.8988L676.938 39.9222C853.595 76.7187 913.108 89.1161 1029.58 246.624C1102.38 345.077 1138.07 402.076 1143.96 459.714C1149.94 518.266 1125.86 576.086 1055.09 673.05C984.325 770.013 933.011 815.506 865.761 840.901C808.167 862.652 739.756 868.809 627.691 870.043C594.079 877.155 563.951 881.732 536.046 881.732C528.018 881.732 520.176 881.354 512.487 880.548C512.268 880.549 512.049 880.549 511.831 880.549C498.71 880.549 486.455 879.768 474.716 878.127C460.533 877.603 447.341 876.34 434.773 874.242C419.396 873.154 405.155 871.365 391.655 868.767C360.357 865.565 333.624 860.038 308.659 851.361C299.657 848.232 290.909 844.715 282.323 840.732C215.047 815.303 163.365 769.798 91.821 673.05C20.1191 576.086 -4.52576 518.266 0.892699 459.714C6.22617 402.074 41.3594 345.077 113.212 246.624C119.641 237.817 125.898 229.193 132.016 220.76L132.02 220.755C134.937 216.735 137.823 212.758 140.68 208.825C207.039 99.6029 258.541 26.7371 365.356 9.8097ZM170.849 167.795C203.93 116.361 235.756 75.2413 275.755 48.0378C292.667 36.5349 310.996 27.6279 331.169 21.2714C326.534 23.2218 321.993 25.3056 317.536 27.52C286.172 40.1428 261.231 59.9081 239.334 85.9446C216.273 109.202 194.159 136.706 170.849 167.795ZM117.704 246.901C117.383 247.34 117.062 247.78 116.741 248.22C45.1988 346.247 10.2206 402.934 4.94512 459.96C-0.405691 517.794 24.0925 575.114 95.3342 671.453C151.739 747.728 195.625 791.912 244.547 819.458C204.684 792.832 165.353 752.826 116.323 690.909C41.7947 596.791 14.4927 539.988 15.589 481.325C16.6666 423.573 45.9921 365.322 107.209 264.278C110.767 258.405 114.263 252.612 117.704 246.901ZM284.616 838.06C231.147 813.281 183.9 770.083 119.906 689.266C45.8308 595.72 18.6923 539.378 19.775 481.385C20.8429 424.205 50.0464 366.254 111.012 265.626C116.235 257.006 121.322 248.558 126.3 240.29L127.031 239.075L127.036 239.067C133.154 228.904 139.119 218.997 144.977 209.362C170.584 174.131 194.081 142.311 217.783 114.851C192.623 152.485 170.39 199.378 144.564 253.848L144.556 253.866L144.518 253.945C140.34 262.757 136.066 271.768 131.671 280.976C82.4165 384.135 59.5021 443.384 62.4961 501.084C65.5364 559.693 94.531 615.413 169.473 706.666C237.42 789.405 285.593 831.268 340.109 853.569C320.032 849.604 301.83 844.53 284.616 838.06ZM335.027 855.835C343.976 858.109 353.244 860.048 362.941 861.686C361.041 861.107 359.15 860.508 357.269 859.888C357.241 859.879 357.214 859.87 357.186 859.861C349.542 858.655 342.169 857.318 335.027 855.835ZM380.365 863.023C384.338 863.97 388.37 864.838 392.474 865.63C395.679 865.957 398.933 866.259 402.238 866.537C400.389 865.96 398.548 865.362 396.715 864.741C391.127 864.216 385.681 863.644 380.365 863.023ZM412.352 866.065C414.497 866.644 416.655 867.193 418.829 867.714C423.893 868.01 429.076 868.259 434.389 868.464C433.311 868.091 432.235 867.708 431.16 867.316C424.718 866.943 418.453 866.527 412.352 866.065ZM421.491 863.513C413.333 862.967 405.469 862.344 397.869 861.636C343.638 843.025 293.89 802.251 222.893 718.725C148.181 630.831 117.887 576.651 111.12 518.823C104.449 461.809 121.353 402.067 159.336 297.613C162.515 288.867 165.607 280.295 168.635 271.902L169.298 270.065L169.301 270.056C201.12 181.825 226.253 112.133 269.131 69.4859C302.724 36.073 347.08 20.062 408.743 20.062C429.404 20.062 452.019 21.8616 476.809 25.4065C503.282 29.1915 527.312 32.2258 549.018 34.8987C544.246 34.452 539.36 34.0011 534.353 33.5389C511.2 31.4024 484.957 28.9801 455.413 25.6045C258.083 3.05389 232.247 102.75 185.348 283.725L185.343 283.746L185.247 284.117C182.922 293.088 180.545 302.261 178.091 311.631C150.314 417.722 138.878 478.274 149.025 535.442C159.199 592.764 192.045 647.984 266.181 732.398C330.684 805.842 375.432 844.063 421.491 863.513ZM443.53 867.97C444.361 868.224 445.194 868.472 446.028 868.715C446.184 868.76 446.341 868.806 446.497 868.851C452.498 869.004 458.66 869.107 464.996 869.165C464.697 869.049 464.398 868.933 464.099 868.817C457.049 868.572 450.197 868.291 443.53 867.97ZM455.717 865.31C447.667 864.989 439.883 864.616 432.343 864.185C384.086 846.227 336.987 807.289 269.656 730.626C194.953 645.568 163.384 592.555 153.175 535.024C145.152 489.833 147.451 444.974 182.197 312.267C184.685 302.766 187.096 293.468 189.451 284.377C212.593 195.073 230.872 124.535 267.321 80.3584C305.397 34.2095 363.222 18.3023 454.806 28.7613C479.332 31.5645 501.574 33.7101 521.663 35.5795C517.32 35.3131 512.877 35.0466 508.324 34.7735L508.323 34.7735L508.284 34.7712L508.283 34.7711C486.88 33.4879 462.624 32.0336 435.272 29.7468C252.247 14.4566 235.394 114.996 204.799 297.516L204.796 297.538L204.702 298.097L204.699 298.113C203.194 307.093 201.654 316.272 200.06 325.648C181.866 432.622 175.543 493.511 188.801 550.219C202.1 607.084 236.077 661.022 309.99 742.601C371.354 810.329 414 846.7 455.717 865.31ZM474.843 869.158C474.902 869.177 474.96 869.197 475.019 869.217C475.67 869.218 476.323 869.218 476.977 869.218C476.264 869.198 475.553 869.178 474.843 869.158ZM571.427 867.107C531.474 867.09 496.473 866.726 465.347 865.665C421.953 848.313 377.28 811.26 313.431 740.791C238.937 658.573 206.277 606.773 192.925 549.67C182.435 504.814 181.45 459.914 204.212 326.071C205.811 316.677 207.353 307.48 208.861 298.485L208.862 298.479L208.865 298.461L208.866 298.453L208.866 298.451L208.95 297.955C224.044 207.896 235.969 136.762 266.409 91.2869C293.738 50.4586 336.013 31.436 401.271 31.436C411.841 31.436 423.021 31.9342 434.831 32.9226C462.161 35.2055 486.386 36.6594 507.772 37.9429L507.773 37.9429L508.013 37.9573L508.014 37.9574C632.671 45.4335 674.665 47.952 795.367 181.169C871.145 264.804 910.801 314.201 931.208 368.71C951.919 424.023 952.989 483.567 935.158 588.411C917.57 691.829 896.883 745.551 861.38 780.016C826.029 814.333 775.231 831.28 681.568 854.203C678.095 855.053 674.677 855.883 671.314 856.693C667.962 857.324 664.559 857.959 661.103 858.599C657.303 859.303 653.564 859.989 649.883 860.658C646.158 861.16 642.375 861.663 638.535 862.17C634.332 862.724 630.197 863.263 626.127 863.786C622.061 864.137 617.934 864.487 613.744 864.838C609.094 865.228 604.52 865.604 600.02 865.968C595.616 866.155 591.147 866.338 586.61 866.519C581.464 866.725 576.404 866.921 571.427 867.107ZM384.675 860.29C375.57 859.277 366.852 858.122 358.466 856.807C298.399 836.898 246.354 794.276 173.02 704.98C98.5096 614.251 69.6887 558.958 66.6807 500.971C63.7144 443.803 86.5444 384.838 135.606 282.078C139.633 273.646 143.555 265.377 147.397 257.276L147.401 257.268L147.41 257.249L148.495 254.961C181.244 185.888 208.517 128.364 243.351 87.1523C254.514 75.9519 265.897 65.756 277.73 56.6586C226.786 98.6019 200.301 172.043 165.265 269.194L165.26 269.208C162.022 278.185 158.711 287.368 155.3 296.749C117.18 401.582 100.221 461.592 106.949 519.093C113.697 576.751 145.22 633.208 219.382 720.456C286.794 799.762 333.666 839.808 384.675 860.29ZM298.52 42.1424C339.66 18.0788 395.36 10.5145 477.567 22.2673C509.335 26.8091 537.599 30.271 562.541 33.326L562.689 33.3442C568.26 34.0264 573.691 34.6913 578.991 35.3473C555.538 31.7993 529.563 27.7953 500.968 22.9365C422.952 9.67627 364.145 12.0884 317.78 31.2262C313.844 33.2193 309.966 35.3232 306.143 37.5382C303.577 39.0252 301.037 40.5601 298.52 42.1424ZM352.458 17.0359C391.833 8.78381 440.187 9.33784 501.865 19.8194C536.04 25.6269 566.485 30.2131 593.35 34.26L593.461 34.2767L593.466 34.2776L593.48 34.2797C599.643 35.2081 605.647 36.1125 611.502 37.0022C586.217 32.5082 558.206 27.4554 527.392 21.4369C486.142 13.3779 449.657 9.30126 417.066 9.30126C398.942 9.30126 382.019 10.5616 366.147 13.0985C361.505 14.291 356.944 15.6034 352.458 17.0359ZM863.12 817.549C820.49 840.946 768.517 852.265 687.144 861.146C763.658 855.444 815.079 846.149 858.567 826.54C919.682 798.985 964.678 751.975 1024.58 653.099C1084.5 554.193 1103.22 496.018 1093.64 438.45C1084.19 381.695 1046.66 326.41 971.297 231.231C875.02 109.644 819.442 79.0049 714.514 56.2808C790.759 76.2647 842.25 111.685 926.643 214.451C1002.75 307.12 1041.2 361.234 1053.92 418.126C1066.84 475.906 1053.61 535.157 1005.1 636.741C956.579 738.371 918.097 787.373 863.12 817.549ZM706.076 855.734C780.088 843.88 827.005 830.657 864.537 805.73C912.964 773.566 944.934 723.207 982.49 619.922C1020.02 516.699 1028.09 457.051 1012.25 399.837C996.644 343.494 957.591 290.864 881.295 201.109C796.846 101.76 747.121 68.1954 675.919 50.9957C773.386 69.8338 826.513 98.5307 923.099 216.14C998.902 308.444 1037.2 362.291 1049.79 418.652C1062.57 475.823 1049.39 534.633 1001.17 635.638C953.581 735.303 914.189 785.577 860.667 814.954C822.178 836.077 775.715 847.238 706.076 855.734ZM865.033 793.868C830.836 821.301 784.349 836.382 725.135 849.262C787.113 838.321 828.351 825.52 861.78 803.318C908.907 772.016 941.619 720.355 978.455 619.058C1015.79 516.383 1023.84 457.144 1008.15 400.486C992.685 344.639 953.789 292.256 877.784 202.84C781.23 89.2499 730.482 62.3815 640.154 47.1287C706.513 61.7485 754.495 93.5396 838.722 189.446C914.991 276.288 954.494 327.416 972.709 383.102C991.202 439.646 987.909 499.505 960.559 603.962C933.19 708.493 907.299 759.962 865.033 793.868ZM740.158 842.432C793.575 827.402 835.181 810.629 864.678 781.995C901.157 746.581 921.387 694.229 939.309 588.831C957.222 483.513 956.118 423.619 935.234 367.843C924.954 340.385 909.17 312.901 885.555 281.345C863.278 251.576 834.766 219.046 798.808 179.36C714.923 86.7754 668.649 56.7275 606.786 44.5221C690.475 56.4599 738.924 81.5386 835.247 191.216C911.237 277.742 950.582 328.64 968.646 383.865C986.976 439.9 983.671 499.38 956.454 603.327C929.603 705.866 903.12 758.672 861.992 791.663C832.919 814.986 796.062 829.264 740.158 842.432Z" fill="url(#paint0_linear_15_9272)"/>
<defs>
<linearGradient id="paint0_linear_15_9272" x1="-42.4644" y1="480.248" x2="407.69" y2="1046.96" gradientUnits="userSpaceOnUse">
<stop stop-color="#5D5DFF" stop-opacity="0.32"/>
<stop offset="1" stop-color="#5D5DFF" stop-opacity="0"/>
</linearGradient>
</defs>
</svg>
