<svg width="53" height="833" viewBox="0 0 53 833" fill="none" xmlns="http://www.w3.org/2000/svg">
<path d="M20.1476 2.88298C23.1503 1.09898 26.9622 1.09898 30.1476 2.88298L42.1421 9.60068C45.3274 11.3847 47.4022 14.6816 47.5848 18.2496L48.2725 31.685C48.4552 35.253 46.7179 38.55 43.7152 40.3339L32.4085 47.0516C29.4058 48.8356 25.5938 48.8356 22.4085 47.0516L10.414 40.3339C7.22864 38.55 5.15389 35.253 4.97125 31.685L4.28352 18.2496C4.10088 14.6816 5.83811 11.3847 8.8408 9.60068L20.1476 2.88298Z" fill="#2590CF"/>
<path d="M20.1476 126.883C23.1503 125.099 26.9622 125.099 30.1476 126.883L42.1421 133.601C45.3274 135.385 47.4022 138.682 47.5848 142.25L48.2725 155.685C48.4552 159.253 46.7179 162.55 43.7152 164.334L32.4085 171.052C29.4058 172.836 25.5938 172.836 22.4085 171.052L10.414 164.334C7.22864 162.55 5.15389 159.253 4.97125 155.685L4.28352 142.25C4.10088 138.682 5.83811 135.385 8.8408 133.601L20.1476 126.883Z" fill="#2590CF"/>
<path d="M20.1476 211.883C23.1503 210.099 26.9622 210.099 30.1476 211.883L42.1421 218.601C45.3274 220.385 47.4022 223.682 47.5848 227.25L48.2725 240.685C48.4552 244.253 46.7179 247.55 43.7152 249.334L32.4085 256.052C29.4058 257.836 25.5938 257.836 22.4085 256.052L10.414 249.334C7.22864 247.55 5.15389 244.253 4.97125 240.685L4.28352 227.25C4.10088 223.682 5.83811 220.385 8.8408 218.601L20.1476 211.883Z" fill="#2590CF"/>
<path d="M20.1476 576.883C23.1503 575.099 26.9622 575.099 30.1476 576.883L42.1421 583.601C45.3274 585.385 47.4022 588.682 47.5848 592.25L48.2725 605.685C48.4552 609.253 46.7179 612.55 43.7152 614.334L32.4085 621.052C29.4058 622.836 25.5938 622.836 22.4085 621.052L10.414 614.334C7.22864 612.55 5.15389 609.253 4.97125 605.685L4.28352 592.25C4.10088 588.682 5.83811 585.385 8.8408 583.601L20.1476 576.883Z" fill="#2590CF"/>
<path d="M20.1476 700.883C23.1503 699.099 26.9622 699.099 30.1476 700.883L42.1421 707.601C45.3274 709.385 47.4022 712.682 47.5848 716.25L48.2725 729.685C48.4552 733.253 46.7179 736.55 43.7152 738.334L32.4085 745.052C29.4058 746.836 25.5938 746.836 22.4085 745.052L10.414 738.334C7.22864 736.55 5.15389 733.253 4.97125 729.685L4.28352 716.25C4.10088 712.682 5.83811 709.385 8.8408 707.601L20.1476 700.883Z" fill="#2590CF"/>
<path d="M20.1476 785.883C23.1503 784.099 26.9622 784.099 30.1476 785.883L42.1421 792.601C45.3274 794.385 47.4022 797.682 47.5848 801.25L48.2725 814.685C48.4552 818.253 46.7179 821.55 43.7152 823.334L32.4085 830.052C29.4058 831.836 25.5938 831.836 22.4085 830.052L10.414 823.334C7.22864 821.55 5.15389 818.253 4.97125 814.685L4.28352 801.25C4.10088 797.682 5.83811 794.385 8.8408 792.601L20.1476 785.883Z" fill="#2590CF"/>
</svg>
