<svg width="54" height="833" viewBox="0 0 54 833" fill="none" xmlns="http://www.w3.org/2000/svg">
<path d="M20.6476 2.88298C23.6503 1.09898 27.4622 1.09898 30.6476 2.88298L42.6421 9.60068C45.8274 11.3847 47.9022 14.6816 48.0848 18.2496L48.7725 31.685C48.9552 35.253 47.2179 38.55 44.2152 40.3339L32.9085 47.0516C29.9058 48.8356 26.0938 48.8356 22.9085 47.0516L10.914 40.3339C7.72864 38.55 5.65389 35.253 5.47125 31.685L4.78352 18.2496C4.60088 14.6816 6.33811 11.3847 9.3408 9.60068L20.6476 2.88298Z" fill="#2590CF"/>
<path d="M20.6476 126.883C23.6503 125.099 27.4622 125.099 30.6476 126.883L42.6421 133.601C45.8274 135.385 47.9022 138.682 48.0848 142.25L48.7725 155.685C48.9552 159.253 47.2179 162.55 44.2152 164.334L32.9085 171.052C29.9058 172.836 26.0938 172.836 22.9085 171.052L10.914 164.334C7.72864 162.55 5.65389 159.253 5.47125 155.685L4.78352 142.25C4.60088 138.682 6.33811 135.385 9.3408 133.601L20.6476 126.883Z" fill="#2590CF"/>
<path d="M20.6476 211.883C23.6503 210.099 27.4622 210.099 30.6476 211.883L42.6421 218.601C45.8274 220.385 47.9022 223.682 48.0848 227.25L48.7725 240.685C48.9552 244.253 47.2179 247.55 44.2152 249.334L32.9085 256.052C29.9058 257.836 26.0938 257.836 22.9085 256.052L10.914 249.334C7.72864 247.55 5.65389 244.253 5.47125 240.685L4.78352 227.25C4.60088 223.682 6.33811 220.385 9.3408 218.601L20.6476 211.883Z" fill="#2590CF"/>
<path d="M20.6476 576.883C23.6503 575.099 27.4622 575.099 30.6476 576.883L42.6421 583.601C45.8274 585.385 47.9022 588.682 48.0848 592.25L48.7725 605.685C48.9552 609.253 47.2179 612.55 44.2152 614.334L32.9085 621.052C29.9058 622.836 26.0938 622.836 22.9085 621.052L10.914 614.334C7.72864 612.55 5.65389 609.253 5.47125 605.685L4.78352 592.25C4.60088 588.682 6.33811 585.385 9.3408 583.601L20.6476 576.883Z" fill="#2590CF"/>
<path d="M20.6476 700.883C23.6503 699.099 27.4622 699.099 30.6476 700.883L42.6421 707.601C45.8274 709.385 47.9022 712.682 48.0848 716.25L48.7725 729.685C48.9552 733.253 47.2179 736.55 44.2152 738.334L32.9085 745.052C29.9058 746.836 26.0938 746.836 22.9085 745.052L10.914 738.334C7.72864 736.55 5.65389 733.253 5.47125 729.685L4.78352 716.25C4.60088 712.682 6.33811 709.385 9.3408 707.601L20.6476 700.883Z" fill="#2590CF"/>
<path d="M20.6476 785.883C23.6503 784.099 27.4622 784.099 30.6476 785.883L42.6421 792.601C45.8274 794.385 47.9022 797.682 48.0848 801.25L48.7725 814.685C48.9552 818.253 47.2179 821.55 44.2152 823.334L32.9085 830.052C29.9058 831.836 26.0938 831.836 22.9085 830.052L10.914 823.334C7.72864 821.55 5.65389 818.253 5.47125 814.685L4.78352 801.25C4.60088 797.682 6.33811 794.385 9.3408 792.601L20.6476 785.883Z" fill="#2590CF"/>
</svg>
